<mxfile host="app.diagrams.net" modified="2022-03-10T07:51:07.344Z" agent="5.0 (Windows NT 10.0; Win64; x64) AppleWebKit/537.36 (KHTML, like Gecko) Chrome/99.0.4844.51 Safari/537.36" etag="U9S43vS5ufM4G27ni7GR" version="17.1.0" type="github">
  <diagram id="kgpKYQtTHZ0yAKxKKP6v" name="Page-1">
    <mxGraphModel dx="1038" dy="539" grid="1" gridSize="10" guides="1" tooltips="1" connect="1" arrows="1" fold="1" page="1" pageScale="1" pageWidth="850" pageHeight="1100" math="0" shadow="0">
      <root>
        <mxCell id="0" />
        <mxCell id="1" parent="0" />
        <mxCell id="c2XQxgMK0aHP51GLpQOd-15" value="" style="group" parent="1" vertex="1" connectable="0">
          <mxGeometry x="220" y="60" width="370" height="330" as="geometry" />
        </mxCell>
        <mxCell id="c2XQxgMK0aHP51GLpQOd-16" value="" style="rounded=0;whiteSpace=wrap;html=1;dashed=1;" parent="c2XQxgMK0aHP51GLpQOd-15" vertex="1">
          <mxGeometry width="369.9999999999998" height="330" as="geometry" />
        </mxCell>
        <mxCell id="c2XQxgMK0aHP51GLpQOd-17" value="智慧供应链平台" style="text;html=1;strokeColor=none;fillColor=none;align=center;verticalAlign=middle;whiteSpace=wrap;rounded=0;dashed=1;" parent="c2XQxgMK0aHP51GLpQOd-15" vertex="1">
          <mxGeometry width="313.07692307692304" height="30" as="geometry" />
        </mxCell>
        <mxCell id="c2XQxgMK0aHP51GLpQOd-5" value="" style="edgeStyle=orthogonalEdgeStyle;rounded=0;orthogonalLoop=1;jettySize=auto;html=1;" parent="1" edge="1">
          <mxGeometry relative="1" as="geometry">
            <mxPoint x="99.5" y="207" as="sourcePoint" />
            <mxPoint x="254.5" y="207" as="targetPoint" />
          </mxGeometry>
        </mxCell>
        <mxCell id="c2XQxgMK0aHP51GLpQOd-6" value="&amp;nbsp;领料清单&amp;nbsp;" style="edgeLabel;html=1;align=center;verticalAlign=middle;resizable=0;points=[];labelBorderColor=default;" parent="c2XQxgMK0aHP51GLpQOd-5" vertex="1" connectable="0">
          <mxGeometry x="-0.2348" y="-3" relative="1" as="geometry">
            <mxPoint x="22" y="-3" as="offset" />
          </mxGeometry>
        </mxCell>
        <mxCell id="3nuBFxr9cyL0pnOWT2aG-5" value="领料人" style="shape=umlLifeline;perimeter=lifelinePerimeter;container=1;collapsible=0;recursiveResize=0;rounded=0;shadow=0;strokeWidth=1;" parent="1" vertex="1">
          <mxGeometry x="50" y="90" width="100" height="300" as="geometry" />
        </mxCell>
        <mxCell id="3nuBFxr9cyL0pnOWT2aG-6" value="" style="points=[];perimeter=orthogonalPerimeter;rounded=0;shadow=0;strokeWidth=1;" parent="3nuBFxr9cyL0pnOWT2aG-5" vertex="1">
          <mxGeometry x="45" y="80" width="10" height="160" as="geometry" />
        </mxCell>
        <mxCell id="c2XQxgMK0aHP51GLpQOd-9" value="" style="edgeStyle=orthogonalEdgeStyle;rounded=0;orthogonalLoop=1;jettySize=auto;html=1;" parent="1" edge="1">
          <mxGeometry relative="1" as="geometry">
            <mxPoint x="254.5" y="229" as="sourcePoint" />
            <mxPoint x="389.5" y="229" as="targetPoint" />
          </mxGeometry>
        </mxCell>
        <mxCell id="c2XQxgMK0aHP51GLpQOd-10" value="&amp;nbsp;申请出库&amp;nbsp;" style="edgeLabel;html=1;align=center;verticalAlign=middle;resizable=0;points=[];labelBorderColor=default;" parent="c2XQxgMK0aHP51GLpQOd-9" vertex="1" connectable="0">
          <mxGeometry x="0.1896" y="-1" relative="1" as="geometry">
            <mxPoint x="-9" as="offset" />
          </mxGeometry>
        </mxCell>
        <mxCell id="c2XQxgMK0aHP51GLpQOd-3" value="普通后勤(仓储员)" style="shape=umlLifeline;perimeter=lifelinePerimeter;container=1;collapsible=0;recursiveResize=0;rounded=0;shadow=0;strokeWidth=1;" parent="1" vertex="1">
          <mxGeometry x="205" y="90" width="100" height="300" as="geometry" />
        </mxCell>
        <mxCell id="c2XQxgMK0aHP51GLpQOd-4" value="" style="points=[];perimeter=orthogonalPerimeter;rounded=0;shadow=0;strokeWidth=1;" parent="c2XQxgMK0aHP51GLpQOd-3" vertex="1">
          <mxGeometry x="45" y="80" width="10" height="160" as="geometry" />
        </mxCell>
        <mxCell id="c2XQxgMK0aHP51GLpQOd-13" value="" style="edgeStyle=orthogonalEdgeStyle;rounded=0;orthogonalLoop=1;jettySize=auto;html=1;" parent="1" source="c2XQxgMK0aHP51GLpQOd-7" target="c2XQxgMK0aHP51GLpQOd-11" edge="1">
          <mxGeometry relative="1" as="geometry" />
        </mxCell>
        <mxCell id="c2XQxgMK0aHP51GLpQOd-14" value="&amp;nbsp;审核确认&amp;nbsp;" style="edgeLabel;html=1;align=center;verticalAlign=middle;resizable=0;points=[];labelBorderColor=default;" parent="c2XQxgMK0aHP51GLpQOd-13" vertex="1" connectable="0">
          <mxGeometry x="0.3107" y="2" relative="1" as="geometry">
            <mxPoint as="offset" />
          </mxGeometry>
        </mxCell>
        <mxCell id="c2XQxgMK0aHP51GLpQOd-7" value="供电所所长" style="shape=umlLifeline;perimeter=lifelinePerimeter;container=1;collapsible=0;recursiveResize=0;rounded=0;shadow=0;strokeWidth=1;" parent="1" vertex="1">
          <mxGeometry x="340" y="90" width="100" height="300" as="geometry" />
        </mxCell>
        <mxCell id="c2XQxgMK0aHP51GLpQOd-8" value="" style="points=[];perimeter=orthogonalPerimeter;rounded=0;shadow=0;strokeWidth=1;" parent="c2XQxgMK0aHP51GLpQOd-7" vertex="1">
          <mxGeometry x="45" y="80" width="10" height="160" as="geometry" />
        </mxCell>
        <mxCell id="c2XQxgMK0aHP51GLpQOd-11" value="普通后勤(仓储员)" style="shape=umlLifeline;perimeter=lifelinePerimeter;container=1;collapsible=0;recursiveResize=0;rounded=0;shadow=0;strokeWidth=1;" parent="1" vertex="1">
          <mxGeometry x="470" y="90" width="100" height="300" as="geometry" />
        </mxCell>
        <mxCell id="c2XQxgMK0aHP51GLpQOd-12" value="" style="points=[];perimeter=orthogonalPerimeter;rounded=0;shadow=0;strokeWidth=1;" parent="c2XQxgMK0aHP51GLpQOd-11" vertex="1">
          <mxGeometry x="45" y="80" width="10" height="160" as="geometry" />
        </mxCell>
        <mxCell id="zFgI9-fbcwyWUuV6etYy-3" value="&amp;nbsp;签字确认&amp;nbsp;" style="edgeStyle=orthogonalEdgeStyle;rounded=0;orthogonalLoop=1;jettySize=auto;html=1;labelBorderColor=default;" edge="1" parent="1" source="2hFVGvoKUABZpyY9VB4k-7" target="zFgI9-fbcwyWUuV6etYy-1">
          <mxGeometry relative="1" as="geometry" />
        </mxCell>
        <mxCell id="2hFVGvoKUABZpyY9VB4k-7" value="外勤人员" style="shape=umlLifeline;perimeter=lifelinePerimeter;container=1;collapsible=0;recursiveResize=0;rounded=0;shadow=0;strokeWidth=1;" parent="1" vertex="1">
          <mxGeometry x="610" y="90" width="100" height="300" as="geometry" />
        </mxCell>
        <mxCell id="2hFVGvoKUABZpyY9VB4k-8" value="" style="points=[];perimeter=orthogonalPerimeter;rounded=0;shadow=0;strokeWidth=1;" parent="2hFVGvoKUABZpyY9VB4k-7" vertex="1">
          <mxGeometry x="45" y="80" width="10" height="160" as="geometry" />
        </mxCell>
        <mxCell id="2hFVGvoKUABZpyY9VB4k-13" value="&lt;span style=&quot;color: rgb(0 , 0 , 0) ; font-family: &amp;#34;helvetica&amp;#34; ; font-size: 11px ; font-style: normal ; font-weight: 400 ; letter-spacing: normal ; text-align: center ; text-indent: 0px ; text-transform: none ; word-spacing: 0px ; background-color: rgb(255 , 255 , 255) ; display: inline ; float: none&quot;&gt;确认出库&lt;/span&gt;&lt;br style=&quot;color: rgb(0 , 0 , 0) ; font-family: &amp;#34;helvetica&amp;#34; ; font-size: 11px ; font-style: normal ; font-weight: 400 ; letter-spacing: normal ; text-align: center ; text-indent: 0px ; text-transform: none ; word-spacing: 0px&quot;&gt;&lt;span style=&quot;color: rgb(0 , 0 , 0) ; font-family: &amp;#34;helvetica&amp;#34; ; font-size: 11px ; font-style: normal ; font-weight: 400 ; letter-spacing: normal ; text-align: center ; text-indent: 0px ; text-transform: none ; word-spacing: 0px ; background-color: rgb(255 , 255 , 255) ; display: inline ; float: none&quot;&gt;&amp;nbsp;打印出库单&amp;nbsp;&lt;/span&gt;" style="edgeStyle=orthogonalEdgeStyle;rounded=0;orthogonalLoop=1;jettySize=auto;html=1;labelBorderColor=default;" parent="1" source="c2XQxgMK0aHP51GLpQOd-12" target="2hFVGvoKUABZpyY9VB4k-7" edge="1">
          <mxGeometry x="-0.0881" relative="1" as="geometry">
            <Array as="points">
              <mxPoint x="560" y="240" />
              <mxPoint x="560" y="240" />
            </Array>
            <mxPoint as="offset" />
          </mxGeometry>
        </mxCell>
        <mxCell id="zFgI9-fbcwyWUuV6etYy-1" value="普通后勤(仓储员)" style="shape=umlLifeline;perimeter=lifelinePerimeter;container=1;collapsible=0;recursiveResize=0;rounded=0;shadow=0;strokeWidth=1;" vertex="1" parent="1">
          <mxGeometry x="740" y="90" width="100" height="300" as="geometry" />
        </mxCell>
        <mxCell id="zFgI9-fbcwyWUuV6etYy-2" value="" style="points=[];perimeter=orthogonalPerimeter;rounded=0;shadow=0;strokeWidth=1;" vertex="1" parent="zFgI9-fbcwyWUuV6etYy-1">
          <mxGeometry x="45" y="80" width="10" height="160" as="geometry" />
        </mxCell>
        <mxCell id="zFgI9-fbcwyWUuV6etYy-4" value="&amp;nbsp;移交出库物资&amp;nbsp;" style="edgeStyle=orthogonalEdgeStyle;rounded=0;orthogonalLoop=1;jettySize=auto;html=1;entryX=1.26;entryY=0.791;entryDx=0;entryDy=0;entryPerimeter=0;labelBorderColor=default;" edge="1" parent="1" source="zFgI9-fbcwyWUuV6etYy-2" target="2hFVGvoKUABZpyY9VB4k-8">
          <mxGeometry relative="1" as="geometry">
            <Array as="points">
              <mxPoint x="760" y="297" />
              <mxPoint x="760" y="297" />
            </Array>
          </mxGeometry>
        </mxCell>
      </root>
    </mxGraphModel>
  </diagram>
</mxfile>
